<?xml version="1.0" standalone="no"?>
<!DOCTYPE svg PUBLIC "-//W3C//DTD SVG 20010904//EN"
 "http://www.w3.org/TR/2001/REC-SVG-20010904/DTD/svg10.dtd">
<svg version="1.0" xmlns="http://www.w3.org/2000/svg"
 width="621.000000pt" height="612.000000pt" viewBox="0 0 621.000000 612.000000"
 preserveAspectRatio="xMidYMid meet">
<metadata>
Created by potrace 1.16, written by Peter Selinger 2001-2019
</metadata>
<g transform="translate(0.000000,612.000000) scale(0.100000,-0.100000)"
fill="#000000" stroke="none">
<path d="M2030 5730 c0 -5 -18 -10 -41 -10 -39 0 -69 -17 -69 -40 0 -6 -4 -8
-10 -5 -6 4 -10 -7 -10 -24 0 -17 -4 -31 -10 -31 -5 0 -10 -13 -10 -29 0 -17
5 -33 10 -36 6 -3 10 -14 10 -24 0 -9 13 -29 28 -44 25 -24 36 -27 96 -27 58
0 70 3 91 25 14 13 25 33 25 45 0 11 5 20 10 20 6 0 10 27 10 60 0 49 -3 62
-17 67 -10 4 -25 15 -34 25 -9 10 -26 18 -38 18 -11 0 -21 5 -21 10 0 6 -4 10
-10 10 -5 0 -10 -4 -10 -10z"/>
<path d="M3050 5730 c0 -5 -9 -10 -19 -10 -11 0 -23 -4 -26 -10 -3 -5 -14 -10
-23 -10 -10 0 -24 -9 -32 -20 -8 -11 -22 -20 -32 -20 -10 0 -18 -4 -18 -10 0
-5 -7 -10 -15 -10 -8 0 -15 -3 -15 -7 0 -11 -50 -33 -72 -33 -10 0 -18 -7 -18
-16 0 -8 -4 -13 -8 -10 -5 3 -15 -4 -22 -15 -8 -10 -22 -19 -32 -19 -10 0 -18
-4 -18 -10 0 -5 -9 -10 -20 -10 -11 0 -20 -4 -20 -9 0 -5 -13 -14 -30 -21 -16
-7 -30 -16 -30 -21 0 -5 -11 -9 -24 -9 -12 0 -37 -13 -54 -30 -18 -16 -39 -30
-47 -30 -8 0 -15 -4 -15 -10 0 -5 -9 -10 -20 -10 -11 0 -20 -3 -20 -7 0 -9
-48 -33 -63 -33 -5 0 -17 -8 -26 -18 -9 -10 -30 -25 -48 -32 -17 -8 -29 -18
-26 -24 3 -5 1 -6 -4 -3 -6 4 -23 -5 -39 -18 -30 -26 -50 -33 -38 -13 4 7 3 8
-4 4 -7 -4 -12 -14 -12 -22 0 -8 -9 -14 -20 -14 -11 0 -20 -4 -20 -10 0 -5 -9
-10 -20 -10 -11 0 -20 -4 -20 -10 0 -5 -6 -10 -13 -10 -7 0 -23 -9 -35 -20
-23 -22 -48 -27 -36 -8 4 7 3 8 -4 4 -6 -4 -9 -13 -5 -21 3 -9 -1 -15 -11 -15
-9 0 -16 -4 -16 -10 0 -5 -9 -10 -20 -10 -11 0 -20 -4 -20 -10 0 -5 -9 -10
-20 -10 -11 0 -20 -7 -20 -15 0 -8 -3 -15 -7 -14 -16 2 -53 -14 -53 -22 0 -5
-12 -9 -26 -9 -14 0 -35 -10 -46 -22 -11 -13 -16 -17 -12 -9 5 9 3 12 -4 7 -7
-4 -12 -14 -12 -22 0 -8 -9 -14 -20 -14 -11 0 -20 -4 -20 -10 0 -5 -9 -10 -20
-10 -11 0 -20 -4 -20 -10 0 -5 -7 -10 -16 -10 -8 0 -12 -4 -9 -10 3 -6 -4 -10
-18 -10 -13 0 -33 -9 -45 -20 -12 -11 -27 -20 -34 -20 -7 0 -19 -9 -26 -20 -7
-11 -22 -20 -35 -20 -12 0 -35 -11 -51 -25 -16 -13 -33 -22 -37 -19 -5 3 -9
-4 -9 -15 0 -14 -6 -21 -20 -21 -11 0 -20 -4 -20 -10 0 -5 -9 -10 -20 -10 -11
0 -20 -4 -20 -10 0 -5 -9 -10 -20 -10 -11 0 -20 -4 -20 -10 0 -5 -9 -10 -20
-10 -11 0 -20 -4 -20 -10 0 -5 -6 -10 -13 -10 -7 0 -23 -9 -35 -20 -12 -11
-27 -20 -34 -20 -8 0 -20 -9 -28 -20 -8 -11 -24 -20 -35 -20 -12 0 -30 -8 -41
-17 -11 -10 -30 -24 -43 -31 -19 -11 -22 -11 -15 0 6 10 4 10 -9 -1 -9 -7 -14
-18 -10 -24 3 -5 1 -7 -5 -3 -6 3 -17 -1 -25 -9 -9 -8 -21 -15 -27 -15 -6 0
-20 -9 -32 -20 -12 -11 -28 -20 -35 -20 -7 0 -13 -4 -13 -10 0 -5 -8 -10 -18
-10 -10 0 -24 -9 -32 -20 -8 -11 -20 -20 -27 -20 -7 0 -13 -4 -13 -10 0 -5 -5
-10 -10 -10 -6 0 -22 -11 -35 -25 l-25 -24 0 -401 c0 -335 2 -404 14 -416 8
-8 20 -14 26 -14 6 0 20 -9 32 -20 12 -11 31 -20 43 -20 11 0 27 -9 35 -20 8
-11 20 -20 28 -20 7 0 10 -4 7 -10 -3 -5 3 -10 14 -10 12 0 21 -4 21 -10 0 -5
8 -10 18 -10 10 0 24 -9 32 -20 8 -11 22 -20 32 -20 10 0 18 -4 18 -10 0 -5 9
-10 20 -10 11 0 20 -4 20 -10 0 -5 7 -10 15 -10 8 0 29 -13 47 -30 17 -16 42
-30 54 -30 13 0 24 -4 24 -10 0 -5 9 -10 20 -10 11 0 20 -4 20 -10 0 -5 10
-10 23 -10 12 0 28 -9 35 -20 7 -11 22 -20 35 -20 12 0 29 -9 37 -20 8 -11 22
-20 32 -20 10 0 18 -4 18 -10 0 -5 7 -10 16 -10 36 0 44 -25 44 -144 0 -105
-2 -116 -18 -116 -10 0 -24 9 -32 20 -8 12 -26 20 -42 20 -15 0 -28 5 -28 10
0 6 -7 10 -15 10 -8 0 -15 5 -15 10 0 6 -8 10 -18 10 -11 0 -27 9 -37 20 -10
11 -24 20 -32 20 -8 0 -23 9 -35 20 -12 11 -30 20 -40 20 -10 0 -18 5 -18 10
0 6 -7 10 -15 10 -8 0 -15 5 -15 10 0 6 -9 10 -20 10 -11 0 -20 5 -20 10 0 6
-9 10 -20 10 -11 0 -20 5 -20 10 0 6 -7 10 -15 10 -8 0 -15 5 -15 10 0 6 -10
10 -23 10 -12 0 -29 9 -37 20 -8 11 -21 20 -30 20 -9 0 -22 9 -30 20 -8 11
-19 20 -25 20 -17 0 -65 24 -65 33 0 4 -7 7 -15 7 -9 0 -26 9 -37 20 -12 11
-27 19 -33 17 -6 -2 -11 -95 -13 -266 -2 -256 -2 -263 18 -268 11 -3 20 -9 20
-14 0 -5 9 -9 20 -9 11 0 20 -4 20 -10 0 -5 13 -10 28 -10 16 0 34 -8 42 -20
8 -12 26 -20 42 -20 l28 0 0 100 c0 93 1 100 20 100 11 0 20 -4 20 -10 0 -5 9
-10 20 -10 11 0 20 -4 20 -10 0 -5 9 -10 20 -10 11 0 20 -4 20 -10 0 -5 7 -10
15 -10 8 0 15 -4 15 -10 0 -5 7 -10 15 -10 8 0 15 -4 15 -10 0 -5 7 -10 16
-10 9 0 12 -5 8 -12 -4 -6 -3 -8 4 -4 6 3 17 -1 25 -9 9 -8 23 -15 31 -15 9 0
16 -4 16 -10 0 -5 9 -10 20 -10 11 0 20 -4 20 -10 0 -5 7 -10 16 -10 9 0 12
-5 8 -12 -4 -6 -3 -8 4 -4 6 3 17 -1 25 -9 9 -8 23 -15 31 -15 9 0 16 -4 16
-10 0 -5 14 -10 30 -10 17 0 30 -4 30 -10 0 -5 6 -10 13 -10 6 0 24 -11 40
-24 l27 -23 0 -457 c0 -430 -1 -456 -18 -456 -10 0 -24 9 -32 20 -8 11 -21 20
-30 20 -9 0 -22 9 -30 20 -8 11 -26 20 -41 20 -18 0 -28 6 -32 20 -3 11 -13
20 -24 20 -10 0 -24 9 -31 20 -7 11 -21 20 -31 20 -11 0 -22 6 -24 13 -4 9 -6
9 -6 0 -2 -21 -21 -14 -21 7 0 15 -7 20 -26 20 -15 0 -34 8 -43 18 -25 27 -56
50 -47 34 7 -11 4 -11 -15 0 -13 7 -32 21 -43 31 -11 9 -28 17 -38 17 -10 0
-18 5 -18 10 0 6 -10 10 -23 10 -12 0 -29 9 -37 20 -8 11 -20 20 -28 20 -7 0
-22 9 -34 20 -12 11 -32 20 -45 20 -13 0 -23 5 -23 10 0 6 -9 10 -20 10 -19 0
-20 -7 -20 -140 0 -133 1 -140 20 -140 11 0 20 -4 20 -10 0 -5 14 -10 30 -10
21 0 30 -5 30 -16 0 -9 9 -18 20 -21 11 -3 20 -9 20 -14 0 -5 9 -9 20 -9 11 0
20 -4 20 -10 0 -5 7 -10 16 -10 8 0 13 -4 10 -8 -2 -4 5 -9 16 -9 12 -1 24 -6
27 -11 3 -4 21 -14 39 -21 17 -8 32 -17 32 -22 0 -5 12 -9 26 -9 16 0 37 -12
54 -30 15 -16 35 -30 44 -30 9 0 16 -4 16 -10 0 -5 9 -10 20 -10 11 0 20 -3
20 -7 0 -10 49 -33 68 -33 7 0 10 -5 7 -10 -3 -5 3 -10 14 -10 12 0 21 -4 21
-10 0 -5 7 -10 15 -10 8 0 15 -6 15 -14 0 -8 5 -18 12 -22 6 -4 8 -3 5 4 -5 6
2 6 18 -1 14 -7 25 -15 25 -19 0 -5 7 -8 16 -8 8 0 13 -4 10 -8 -2 -4 7 -9 22
-10 15 -1 29 -7 30 -12 2 -6 11 -10 19 -10 9 0 23 -8 32 -17 21 -23 57 -43 76
-43 8 0 15 -4 15 -10 0 -5 6 -10 13 -10 7 0 22 -8 33 -17 10 -10 28 -25 39
-33 16 -13 17 -13 10 -1 -6 10 2 8 21 -5 16 -11 41 -26 56 -34 16 -7 28 -17
28 -22 0 -4 13 -8 28 -8 16 0 34 -8 42 -20 8 -11 23 -20 33 -20 10 0 15 -4 12
-10 -3 -5 -1 -10 5 -10 6 0 9 -4 6 -8 -2 -4 7 -9 20 -10 14 -1 34 -11 46 -22
12 -11 26 -20 30 -20 5 0 18 -9 30 -20 12 -11 31 -20 43 -20 11 0 27 -9 35
-20 8 -11 22 -20 32 -20 10 0 18 -4 18 -8 0 -11 78 -52 99 -52 9 0 23 -9 31
-20 8 -11 22 -20 31 -20 10 0 19 -3 21 -7 4 -10 57 -42 81 -50 9 -3 17 -9 17
-14 0 -5 9 -9 20 -9 11 0 20 -4 20 -10 0 -5 9 -10 20 -10 11 0 20 -4 20 -8 0
-5 12 -15 28 -23 15 -8 36 -22 46 -31 11 -10 26 -18 33 -18 7 0 13 -4 13 -10
0 -5 9 -10 20 -10 11 0 20 -4 20 -10 0 -5 9 -10 20 -10 11 0 20 -4 20 -10 0
-5 7 -10 16 -10 8 0 12 -4 9 -10 -3 -5 2 -10 12 -10 10 0 25 -9 33 -20 8 -11
25 -20 38 -20 13 0 20 -4 17 -10 -4 -6 5 -10 19 -10 14 0 26 -4 26 -10 0 -5 7
-10 15 -10 8 0 15 -4 15 -10 0 -5 7 -10 16 -10 8 0 12 -4 9 -10 -4 -6 7 -10
24 -10 17 0 31 -4 31 -10 0 -5 6 -10 13 -10 7 0 23 -9 35 -20 22 -21 92 -28
92 -10 0 6 7 10 15 10 8 0 15 5 15 10 0 6 11 10 25 10 17 0 25 6 25 18 0 9 0
549 0 1200 0 1177 0 1182 20 1182 11 0 20 4 20 10 0 19 44 50 72 50 15 0 28 5
28 10 0 6 6 10 13 10 7 0 23 9 35 21 20 18 24 18 37 5 13 -12 15 -75 15 -420
0 -399 0 -406 20 -406 11 0 20 3 20 8 0 8 49 32 67 32 7 0 13 5 13 10 0 6 9
10 20 10 11 0 20 5 20 10 0 6 9 10 20 10 19 0 20 -7 20 -100 0 -99 0 -100 24
-100 14 0 28 4 31 10 3 5 15 10 26 10 10 0 19 5 19 10 0 6 7 10 15 10 8 0 15
5 15 10 0 6 7 10 15 10 8 0 15 5 15 10 0 6 7 10 15 10 8 0 15 5 15 10 0 6 9
10 19 10 11 0 23 5 26 10 3 6 15 10 26 10 12 0 19 7 19 20 0 15 7 20 26 20 15
0 33 8 40 18 11 14 13 -84 14 -595 0 -344 -4 -613 -9 -613 -5 0 -8 -11 -8 -25
0 -14 4 -25 9 -25 5 0 6 5 3 10 -4 6 10 10 34 10 23 0 41 5 41 10 0 6 10 10
23 10 12 0 29 9 37 20 8 11 22 20 32 20 10 0 18 5 18 10 0 6 9 10 21 10 11 0
17 4 14 10 -3 5 1 10 9 10 9 0 16 5 16 10 0 6 9 10 20 10 11 0 25 9 32 20 7
11 21 20 30 20 10 0 23 9 30 20 7 11 21 20 31 20 10 0 27 9 39 20 12 11 31 20
43 20 12 0 31 9 43 20 12 11 28 20 37 20 8 0 15 5 15 10 0 6 6 10 13 10 7 0
23 9 35 20 12 11 28 20 37 20 8 0 15 5 15 10 0 6 4 10 10 10 5 0 19 8 30 17
20 17 20 29 20 657 l0 639 22 19 c12 10 33 21 47 25 14 3 33 14 42 25 9 10 26
18 39 18 13 0 24 8 27 20 4 14 14 20 32 20 15 0 33 9 41 20 8 12 26 20 42 20
21 0 28 5 28 20 0 15 7 20 28 20 16 0 32 8 40 20 7 11 19 20 28 20 8 0 24 9
36 20 12 11 28 20 35 20 7 0 13 5 13 10 0 6 9 10 20 10 11 0 20 5 20 10 0 6 8
10 18 10 10 0 24 9 32 20 8 11 22 20 32 20 14 0 18 8 18 34 0 19 6 37 13 40
10 5 10 7 0 12 -15 7 -18 104 -3 104 18 0 11 49 -10 70 -22 22 -40 26 -40 10
0 -5 -9 -10 -20 -10 -11 0 -20 -4 -20 -10 0 -5 -4 -10 -10 -10 -9 0 -35 -19
-65 -47 -8 -7 -21 -13 -29 -13 -9 0 -16 -4 -16 -10 0 -5 -13 -10 -28 -10 -16
0 -34 -8 -42 -20 -8 -11 -21 -20 -30 -20 -9 0 -22 -9 -30 -20 -8 -12 -26 -20
-42 -20 -18 0 -28 -5 -28 -14 0 -8 -13 -17 -30 -21 -16 -4 -30 -11 -30 -16 0
-5 -9 -9 -20 -9 -11 0 -20 -4 -20 -10 0 -5 -12 -10 -26 -10 -17 0 -28 -6 -31
-20 -4 -14 -14 -20 -32 -20 -15 0 -33 -9 -41 -20 -8 -11 -22 -20 -32 -20 -10
0 -18 -4 -18 -10 0 -5 -8 -10 -18 -10 -10 0 -24 -9 -32 -20 -8 -11 -22 -20
-32 -20 -10 0 -18 -4 -18 -10 0 -5 -9 -10 -21 -10 -11 0 -17 -4 -14 -10 3 -5
1 -10 -5 -10 -22 0 -40 -29 -40 -64 0 -20 -4 -36 -10 -36 -5 0 -10 -13 -10
-30 0 -16 5 -30 10 -30 7 0 10 -202 10 -587 l0 -588 -27 -12 c-15 -7 -31 -13
-35 -13 -5 0 -18 -9 -30 -20 -12 -11 -31 -20 -43 -20 -11 0 -27 -9 -35 -20 -8
-11 -20 -20 -27 -20 -7 0 -13 -4 -13 -10 0 -5 -11 -10 -25 -10 -14 0 -25 -4
-25 -10 0 -5 -5 -10 -11 -10 -7 0 -10 174 -9 593 2 723 3 667 -15 667 -8 0
-15 -4 -15 -10 0 -5 -9 -10 -20 -10 -24 0 -58 -18 -81 -43 -9 -9 -23 -17 -32
-17 -21 0 -68 -26 -60 -33 3 -4 -1 -7 -11 -7 -11 0 -15 4 -10 12 5 9 3 9 -9
-1 -9 -7 -14 -18 -10 -24 3 -6 1 -7 -5 -3 -6 3 -22 -5 -36 -19 -14 -14 -32
-25 -41 -25 -8 0 -15 -4 -15 -10 0 -5 -7 -10 -15 -10 -8 0 -15 -4 -15 -10 0
-5 -7 -10 -15 -10 -8 0 -15 -4 -15 -10 0 -5 -8 -10 -18 -10 -10 0 -24 -9 -32
-20 -8 -11 -22 -20 -32 -20 -10 0 -18 -4 -18 -10 0 -5 -9 -10 -20 -10 -20 0
-20 7 -20 365 0 237 -4 365 -10 365 -5 0 -10 19 -10 43 0 36 4 44 27 55 15 6
31 12 36 12 5 0 21 13 35 28 15 16 39 32 54 35 15 4 33 14 42 22 8 8 22 15 30
15 9 0 16 5 16 10 0 6 9 10 20 10 11 0 25 9 32 20 7 11 21 20 30 20 10 0 18 5
18 10 0 6 9 10 20 10 11 0 25 9 32 20 7 11 21 20 30 20 10 0 18 5 18 10 0 6
13 10 29 10 21 0 32 6 36 20 4 12 15 20 28 20 13 0 29 9 37 20 8 12 26 20 42
20 21 0 28 5 28 20 0 15 7 20 29 20 21 0 32 6 36 20 4 13 15 20 31 20 13 0 24
5 24 10 0 6 9 10 21 10 11 0 17 5 14 10 -4 6 5 10 19 10 14 0 26 5 26 10 0 6
7 10 15 10 8 0 20 9 27 20 7 11 18 20 25 20 7 0 13 5 13 10 0 6 14 10 30 10
17 0 30 3 30 8 0 7 48 32 63 32 13 0 37 27 30 34 -4 3 5 6 18 6 14 0 31 9 39
20 8 11 26 20 40 20 14 0 32 9 40 20 8 11 21 20 30 20 9 0 22 9 30 20 8 11 22
20 32 20 10 0 18 5 18 10 0 6 7 10 15 10 8 0 15 5 15 10 0 6 11 10 24 10 16 0
27 7 31 20 4 13 15 20 31 20 13 0 24 5 24 10 0 6 9 10 21 10 11 0 17 5 14 10
-3 6 0 10 7 10 8 0 20 9 28 20 8 12 26 20 42 20 18 0 29 6 33 20 4 14 15 20
36 20 18 0 33 7 41 20 7 11 20 20 29 20 9 0 31 14 49 30 18 17 38 30 46 30 8
0 14 5 14 10 0 6 7 10 15 10 8 0 26 10 40 22 23 20 25 28 25 110 0 81 -2 88
-20 88 -13 0 -20 7 -20 20 0 13 -7 20 -20 20 -11 0 -20 5 -20 10 0 6 -6 10
-13 10 -7 0 -23 9 -35 20 -12 11 -28 20 -37 20 -8 0 -15 5 -15 10 0 6 -9 10
-20 10 -13 0 -20 7 -20 20 0 13 -7 20 -20 20 -11 0 -20 6 -20 13 0 8 -4 7 -10
-3 -6 -10 -10 -11 -10 -2 0 6 -6 12 -13 12 -7 0 -23 9 -35 20 -12 11 -28 20
-37 20 -8 0 -15 5 -15 10 0 6 -9 10 -20 10 -11 0 -25 9 -32 20 -7 11 -19 20
-26 20 -7 0 -22 9 -34 20 -12 11 -28 20 -35 20 -7 0 -13 5 -13 10 0 6 -6 10
-13 10 -18 0 -67 24 -67 33 0 4 -7 7 -15 7 -8 0 -15 5 -15 10 0 6 -7 10 -15
10 -8 0 -15 5 -15 10 0 6 -9 10 -20 10 -11 0 -20 5 -20 10 0 6 -9 10 -20 10
-11 0 -20 5 -20 10 0 6 -9 10 -20 10 -11 0 -20 6 -20 14 0 8 -5 18 -12 22 -7
5 -8 3 -3 -6 5 -8 -7 -3 -26 10 -19 13 -35 28 -37 32 -2 4 -15 8 -28 8 -13 0
-24 5 -24 10 0 6 -7 10 -15 10 -8 0 -15 5 -15 10 0 6 -9 10 -20 10 -11 0 -20
5 -20 10 0 6 -7 10 -15 10 -8 0 -28 14 -43 30 -16 17 -37 30 -46 30 -9 0 -16
5 -16 10 0 6 -9 10 -20 10 -11 0 -20 5 -20 10 0 6 -8 10 -18 10 -10 0 -24 9
-32 20 -8 11 -26 20 -40 20 -14 0 -32 9 -40 20 -8 11 -22 20 -31 20 -9 0 -19
9 -22 20 -3 13 -14 20 -29 20 -13 0 -30 9 -38 20 -8 11 -26 20 -40 20 -14 0
-32 9 -40 20 -8 11 -21 20 -30 20 -9 0 -22 9 -30 20 -8 11 -22 20 -32 20 -10
0 -18 5 -18 10 0 6 -7 10 -15 10 -9 0 -25 9 -37 20 -12 11 -28 20 -35 20 -7 0
-13 5 -13 10 0 6 -9 10 -20 10 -11 0 -20 3 -20 8 0 8 -49 32 -67 32 -7 0 -13
6 -13 14 0 14 -52 46 -74 46 -6 0 -27 14 -46 30 -19 16 -44 30 -55 30 -11 0
-27 9 -35 20 -8 11 -20 20 -28 20 -7 0 -10 5 -7 10 4 6 3 9 -2 8 -12 -4 -73
25 -73 34 0 5 -9 8 -20 8 -11 0 -20 5 -20 10 0 6 -9 10 -20 10 -11 0 -20 5
-20 10 0 6 -8 10 -18 10 -10 0 -24 9 -32 20 -8 11 -22 20 -32 20 -10 0 -18 5
-18 10 0 6 -9 10 -20 10 -11 0 -20 5 -20 10 0 6 -9 10 -19 10 -11 0 -23 5 -26
10 -3 6 -24 10 -46 10 -21 0 -39 -4 -39 -10z m70 -280 c0 -5 9 -10 20 -10 11
0 20 -4 20 -10 0 -5 9 -10 20 -10 11 0 20 -4 20 -10 0 -5 9 -10 20 -10 11 0
20 -4 20 -10 0 -5 8 -10 18 -10 10 0 24 -9 32 -20 8 -11 22 -20 32 -20 10 0
18 -4 18 -10 0 -5 7 -10 15 -10 8 0 15 -4 15 -10 0 -5 7 -10 15 -10 8 0 15 -4
15 -10 0 -5 8 -10 18 -10 10 0 24 -9 32 -20 8 -11 25 -20 38 -20 25 0 55 -23
45 -34 -4 -3 1 -6 10 -6 9 0 17 -4 17 -10 0 -5 11 -10 25 -10 14 0 35 -9 47
-20 12 -11 28 -20 35 -20 7 0 13 -4 13 -10 0 -5 8 -10 18 -10 10 0 24 -9 32
-20 8 -12 26 -20 42 -20 15 0 28 -4 28 -10 0 -5 8 -10 18 -10 10 0 24 -9 32
-20 8 -11 22 -20 32 -20 10 0 18 -3 18 -6 0 -12 -28 -32 -51 -36 -13 -1 -31
-11 -40 -20 -9 -10 -24 -18 -33 -18 -9 0 -16 -4 -16 -10 0 -5 -7 -10 -15 -10
-8 0 -15 -4 -15 -10 0 -5 -7 -10 -15 -10 -8 0 -15 -4 -15 -10 0 -5 -7 -10 -16
-10 -8 0 -22 -6 -30 -14 -16 -17 -19 -46 -4 -46 6 0 10 -6 10 -14 0 -8 5 -18
12 -22 7 -5 8 -3 3 5 -9 15 29 -5 59 -31 11 -10 26 -18 33 -18 7 0 13 -4 13
-10 0 -6 27 -10 60 -10 53 0 60 2 60 20 0 15 7 20 28 20 16 0 34 8 42 20 8 11
22 20 30 20 9 0 26 9 38 20 12 11 30 20 42 20 11 0 20 5 20 10 0 6 7 10 15 10
8 0 15 5 15 12 0 6 8 1 19 -10 10 -12 27 -22 37 -22 11 0 25 -9 32 -20 7 -11
22 -20 35 -20 12 0 29 -9 37 -20 8 -11 22 -20 32 -20 10 0 18 -4 18 -10 0 -5
7 -10 16 -10 8 0 13 -4 10 -8 -2 -4 7 -9 21 -10 14 -1 33 -11 43 -22 10 -11
23 -20 29 -20 7 0 19 -7 27 -15 13 -13 12 -18 -10 -40 -14 -14 -32 -25 -41
-25 -8 0 -15 -4 -15 -10 0 -5 -9 -10 -20 -10 -11 0 -20 -4 -20 -9 0 -5 -9 -11
-20 -14 -11 -3 -20 -12 -20 -21 0 -15 -12 -21 -35 -16 -5 1 -4 -4 3 -11 6 -7
12 -21 12 -31 0 -10 7 -18 15 -18 8 0 15 -4 15 -10 0 -5 7 -10 15 -10 8 0 15
-4 15 -10 0 -5 7 -10 15 -10 8 0 15 -4 15 -10 0 -5 6 -10 13 -10 7 0 19 -9 27
-20 8 -11 26 -20 40 -20 14 0 32 9 40 20 8 11 21 20 30 20 9 0 22 9 30 20 8
11 25 20 37 20 13 0 23 5 23 10 0 6 7 10 15 10 8 0 15 5 15 10 0 6 9 10 20 10
11 0 20 5 20 10 0 22 53 9 80 -20 15 -16 35 -30 44 -30 9 0 16 -4 16 -10 0 -5
9 -10 20 -10 11 0 20 -4 20 -8 0 -5 21 -20 48 -33 26 -13 54 -32 63 -41 9 -10
27 -18 40 -18 14 0 31 -9 39 -20 8 -11 25 -20 38 -20 13 0 21 -4 18 -9 -4 -5
7 -15 23 -22 39 -17 49 -49 15 -49 -13 0 -24 -4 -24 -10 0 -5 -7 -10 -15 -10
-8 0 -15 -4 -15 -10 0 -5 -11 -10 -24 -10 -16 0 -27 -7 -31 -20 -4 -12 -15
-20 -28 -20 -13 0 -29 -9 -37 -20 -8 -11 -22 -20 -32 -20 -10 0 -18 -4 -18
-10 0 -5 -7 -10 -15 -10 -8 0 -15 -4 -15 -10 0 -5 -13 -10 -30 -10 -16 0 -30
5 -30 10 0 6 -5 10 -10 10 -6 0 -20 9 -32 20 -12 11 -28 20 -35 20 -7 0 -13 5
-13 10 0 6 -8 10 -18 10 -10 0 -24 9 -32 20 -8 12 -26 20 -42 20 -15 0 -28 5
-28 10 0 6 -11 10 -25 10 -14 0 -25 -4 -25 -10 0 -5 -7 -10 -15 -10 -8 0 -15
-4 -15 -10 0 -5 -9 -10 -20 -10 -11 0 -20 -4 -20 -10 0 -5 -7 -10 -16 -10 -9
0 -24 -8 -33 -18 -9 -10 -24 -21 -33 -25 -11 -4 -18 -17 -18 -32 0 -20 5 -25
24 -25 16 0 27 -7 31 -20 4 -13 15 -20 31 -20 13 0 24 -4 24 -10 0 -5 7 -10
15 -10 8 0 15 -4 15 -10 0 -5 7 -10 15 -10 8 0 15 -4 15 -10 0 -5 7 -10 15
-10 8 0 15 -9 15 -20 0 -11 -7 -20 -15 -20 -8 0 -15 -4 -15 -10 0 -5 -7 -10
-15 -10 -8 0 -15 -4 -15 -10 0 -5 -9 -10 -20 -10 -11 0 -20 -4 -20 -10 0 -5
-10 -10 -22 -10 -12 0 -33 -10 -46 -22 -14 -13 -22 -16 -17 -8 6 12 5 13 -6 3
-20 -20 -57 -16 -64 7 -3 11 -15 20 -26 20 -10 0 -19 5 -19 10 0 6 -8 10 -17
10 -10 1 -34 14 -53 30 -19 17 -42 30 -52 30 -10 0 -18 5 -18 10 0 6 -9 10
-20 10 -11 0 -20 5 -20 10 0 6 -7 10 -16 10 -8 0 -29 13 -47 30 -18 16 -41 30
-52 30 -11 0 -27 9 -35 20 -8 11 -22 20 -32 20 -10 0 -18 5 -18 10 0 6 9 10
20 10 11 0 20 5 20 10 0 6 7 10 15 10 8 0 15 5 15 10 0 6 7 10 15 10 9 0 25 9
37 20 12 11 30 20 40 20 10 0 18 5 18 10 0 6 7 10 16 10 8 0 12 5 9 10 -3 6 1
10 10 10 37 0 45 24 45 144 l0 116 -35 0 c-19 0 -35 -4 -35 -10 0 -5 -7 -10
-15 -10 -8 0 -15 -4 -15 -10 0 -5 -9 -10 -20 -10 -11 0 -20 -4 -20 -10 0 -5
-7 -10 -15 -10 -18 0 -51 -18 -79 -42 -11 -10 -29 -18 -41 -18 -11 0 -27 -9
-35 -20 -8 -11 -22 -20 -32 -20 -10 0 -18 -4 -18 -10 0 -5 -7 -10 -15 -10 -8
0 -15 -4 -15 -10 0 -5 -7 -10 -15 -10 -8 0 -15 -4 -15 -10 0 -5 -7 -10 -15
-10 -8 0 -15 -4 -15 -10 0 -5 -19 -10 -43 -10 -31 0 -46 5 -57 20 -8 11 -19
20 -25 20 -5 0 -26 14 -45 30 -19 16 -45 30 -57 30 -13 0 -23 5 -23 10 0 6 -8
10 -18 10 -10 0 -24 9 -32 20 -8 12 -26 20 -42 20 -15 0 -28 5 -28 10 0 6 -7
10 -15 10 -8 0 -15 5 -15 10 0 6 -7 10 -15 10 -8 0 -15 7 -15 16 0 9 -9 18
-20 21 -11 3 -20 12 -20 19 0 8 -4 14 -10 14 -5 0 -10 5 -10 10 0 6 -16 26
-35 45 -28 28 -42 35 -75 35 -22 0 -40 5 -40 10 0 6 -7 10 -15 10 -8 0 -15 -4
-15 -10 0 -5 -21 -10 -46 -10 -33 0 -52 -6 -63 -18 -9 -10 -24 -21 -33 -25
-10 -3 -18 -13 -18 -22 0 -8 -4 -15 -10 -15 -5 0 -10 -9 -10 -20 0 -11 -4 -20
-10 -20 -6 0 -10 -35 -10 -85 0 -50 4 -85 10 -85 6 0 10 -8 10 -18 0 -17 32
-52 48 -52 4 0 14 -9 22 -20 8 -12 26 -20 42 -20 15 0 28 -4 28 -10 0 -6 27
-10 60 -10 33 0 60 4 60 10 0 6 23 10 50 10 28 0 50 -4 50 -10 0 -5 9 -10 20
-10 11 0 20 -4 20 -10 0 -5 9 -10 20 -10 11 0 20 -4 20 -10 0 -5 7 -10 16 -10
8 0 12 -4 9 -10 -4 -6 7 -10 24 -10 17 0 31 -4 31 -8 0 -5 12 -15 28 -23 15
-8 34 -22 43 -31 9 -10 22 -18 28 -18 7 0 21 -9 33 -20 12 -11 32 -20 45 -20
13 0 23 -4 23 -10 0 -5 7 -10 15 -10 8 0 15 -4 15 -10 0 -5 6 -10 13 -10 7 0
19 -9 27 -20 8 -11 20 -20 28 -20 7 0 33 -13 57 -30 24 -16 51 -30 59 -30 9 0
16 -4 16 -10 0 -5 7 -10 15 -10 8 0 15 -4 15 -10 0 -5 8 -10 19 -10 10 0 21
-9 24 -20 4 -15 14 -20 39 -20 22 0 37 -6 46 -20 7 -11 21 -20 32 -20 11 0 20
-4 20 -10 0 -5 9 -10 20 -10 11 0 20 -4 20 -10 0 -5 7 -10 15 -10 27 0 28 -28
1 -55 -14 -14 -30 -25 -36 -25 -6 0 -18 -7 -26 -15 -9 -8 -27 -18 -42 -22 -15
-3 -35 -15 -44 -26 -18 -20 -18 -20 -37 1 -10 12 -25 22 -32 22 -8 0 -21 9
-29 20 -8 11 -21 20 -29 20 -7 0 -21 8 -30 18 -24 25 -56 49 -47 35 12 -22
-18 -15 -34 7 -8 11 -22 20 -30 20 -9 0 -25 8 -36 18 -10 10 -34 25 -51 32
-18 8 -33 18 -33 22 0 5 -8 8 -18 8 -10 0 -24 9 -32 20 -8 11 -22 20 -32 20
-10 0 -18 4 -18 9 0 5 -8 11 -17 14 -18 6 -73 37 -83 47 -10 10 -50 30 -60 30
-6 0 -20 9 -32 20 -24 22 -38 26 -38 10 0 -5 -10 -10 -23 -10 -12 0 -29 -9
-37 -20 -8 -11 -24 -20 -37 -20 -13 0 -24 -8 -28 -20 -6 -20 -45 -29 -45 -10
0 6 -9 10 -20 10 -11 0 -20 5 -20 10 0 6 -7 10 -15 10 -9 0 -25 9 -37 20 -12
11 -32 20 -44 20 -13 0 -24 8 -27 20 -3 13 -14 20 -29 20 -13 0 -30 9 -38 20
-8 11 -22 20 -32 20 -10 0 -18 5 -18 10 0 6 -7 10 -15 10 -8 0 -15 5 -15 10 0
6 -10 10 -23 10 -12 0 -29 9 -37 20 -8 11 -20 20 -28 20 -7 0 -22 9 -34 20
-12 11 -31 20 -42 20 -10 0 -17 3 -13 6 10 11 -20 34 -47 36 -13 1 -22 6 -20
10 3 4 -5 8 -18 8 -13 0 -30 9 -38 20 -8 11 -24 20 -37 20 -13 0 -24 8 -28 20
-4 13 -15 20 -31 20 -13 0 -38 13 -56 30 -17 17 -37 30 -44 30 -8 0 -14 5 -14
10 0 6 -6 10 -13 10 -18 0 -67 24 -67 33 0 4 -12 7 -27 7 -14 0 -24 3 -20 6
10 10 -20 34 -43 34 -13 0 -24 8 -27 20 -4 13 -14 20 -30 20 -14 0 -33 9 -43
20 -10 11 -29 21 -44 22 -14 1 -26 8 -26 16 0 8 -9 16 -20 19 -11 3 -20 9 -20
14 0 5 -9 9 -20 9 -11 0 -20 5 -20 10 0 6 -7 10 -15 10 -9 0 -25 9 -37 20 -12
11 -28 20 -35 20 -7 0 -13 5 -13 10 0 6 -7 10 -16 10 -8 0 -22 7 -31 15 -14
14 -13 18 7 35 13 11 26 18 29 15 4 -2 14 5 21 16 8 10 19 19 25 19 6 0 20 8
31 18 27 23 61 42 77 42 7 0 19 9 27 20 19 26 58 25 88 -2 14 -13 22 -17 18
-10 -4 7 -1 12 8 12 15 0 21 -12 17 -33 -1 -5 3 -6 9 -2 5 3 10 -1 10 -9 0 -9
5 -16 11 -16 5 0 7 5 4 10 -3 6 1 10 9 10 9 0 16 -4 16 -10 0 -5 6 -10 13 -10
7 0 23 -9 35 -20 12 -11 28 -20 37 -20 8 0 15 -4 15 -10 0 -5 7 -10 16 -10 18
0 44 -23 44 -39 0 -6 -4 -11 -10 -11 -5 0 -10 -7 -10 -15 0 -8 5 -15 10 -15 6
0 10 -7 10 -15 0 -8 9 -20 20 -27 11 -7 20 -17 20 -22 0 -4 17 -24 37 -42 36
-33 39 -34 125 -34 52 0 88 4 88 10 0 6 11 10 25 10 14 0 25 3 25 8 0 4 18 25
40 47 31 32 39 48 40 77 0 20 6 38 13 41 10 4 10 7 0 18 -7 7 -13 33 -13 56 0
33 -6 50 -25 68 -13 14 -28 25 -34 25 -5 0 -13 9 -16 20 -6 18 -15 20 -80 20
-49 0 -75 4 -79 13 -5 10 -7 10 -12 0 -3 -7 -23 -13 -45 -13 -30 0 -45 7 -67
30 -16 17 -37 30 -46 30 -9 0 -16 4 -16 9 0 5 -12 11 -27 13 -30 3 -47 38 -19
38 9 0 16 5 16 10 0 6 6 10 14 10 21 0 67 26 59 33 -3 4 2 7 13 7 11 0 26 9
34 20 8 11 22 20 32 20 10 0 18 5 18 10 0 6 10 10 23 10 13 0 33 9 45 20 12
11 28 20 37 20 8 0 15 5 15 10 0 6 9 10 20 10 11 0 20 5 20 10 0 6 9 10 21 10
11 0 17 5 14 10 -3 6 1 10 9 10 9 0 16 5 16 10 0 6 14 10 30 10 23 0 30 4 30
20 0 13 7 20 20 20 11 0 20 5 20 10 0 6 10 10 23 10 13 0 33 9 45 20 12 11 28
20 37 20 8 0 15 5 15 10 0 6 7 10 15 10 8 0 15 5 15 10 0 6 7 10 15 10 8 0 15
5 15 10 0 6 9 10 20 10 11 0 20 5 20 10 0 6 8 10 18 10 10 0 24 9 32 20 8 11
22 20 32 20 10 0 18 5 18 10 0 6 14 10 30 10 17 0 30 -4 30 -10z m-1650 -960
c0 -5 6 -10 13 -10 7 0 19 -9 27 -20 8 -11 20 -20 28 -20 7 0 22 -9 34 -20 12
-11 31 -20 43 -20 11 0 27 -9 35 -20 8 -11 22 -20 32 -20 10 0 18 -4 18 -10 0
-5 9 -10 20 -10 11 0 20 -4 20 -10 0 -5 7 -10 16 -10 15 0 44 -23 44 -34 0 -3
-13 -6 -30 -6 -16 0 -30 -4 -30 -10 0 -5 -7 -10 -16 -10 -8 0 -12 -4 -9 -10 3
-5 -2 -10 -12 -10 -10 0 -25 -9 -33 -20 -8 -11 -24 -20 -35 -20 -12 0 -31 -9
-43 -20 -12 -11 -28 -20 -37 -20 -8 0 -15 -4 -15 -10 0 -5 -8 -10 -18 -10 -10
0 -24 -9 -32 -20 -8 -11 -26 -20 -40 -20 -14 0 -32 -9 -40 -20 -8 -11 -22 -20
-32 -20 -10 0 -18 -4 -18 -10 0 -5 -9 -10 -20 -10 -11 0 -20 5 -20 10 0 6 -9
10 -19 10 -11 0 -21 5 -23 11 -2 6 -16 12 -31 12 -18 1 -27 8 -27 18 0 17 -18
29 -55 36 -11 2 -21 8 -23 13 -2 6 -11 10 -21 10 -9 0 -23 9 -31 20 -8 11 -25
20 -38 20 -13 0 -30 7 -39 15 -17 18 -11 45 12 45 8 0 15 5 15 10 0 6 8 10 18
10 10 0 24 9 32 20 8 11 26 20 40 20 14 0 31 9 38 20 7 11 20 20 30 20 10 0
24 9 32 20 8 12 26 20 42 20 18 0 29 6 33 20 3 11 13 20 21 20 8 0 24 9 36 20
12 11 30 20 40 20 10 0 18 5 18 10 0 6 11 10 25 10 14 0 25 -4 25 -10z m620
-370 c8 -11 25 -20 37 -20 13 0 23 -4 23 -10 0 -5 7 -10 15 -10 8 0 15 -4 15
-10 0 -5 6 -10 13 -10 7 0 18 -9 25 -20 7 -11 23 -20 37 -20 14 0 25 -4 25 -9
0 -5 17 -17 38 -27 35 -17 36 -19 12 -22 -13 -2 -31 -11 -40 -20 -19 -21 -56
-42 -73 -42 -7 0 -19 -9 -27 -20 -8 -11 -24 -20 -37 -20 -12 0 -25 -4 -28 -10
-3 -5 -15 -10 -26 -10 -10 0 -19 -4 -19 -10 0 -5 -7 -10 -16 -10 -9 0 -12 -5
-8 -12 4 -6 3 -8 -4 -4 -6 3 -17 -1 -25 -9 -9 -8 -21 -15 -27 -15 -6 0 -8 -5
-4 -12 4 -6 3 -8 -4 -4 -6 3 -17 -1 -25 -9 -9 -8 -19 -15 -24 -15 -4 0 -21
-13 -36 -30 -16 -16 -37 -30 -48 -30 -10 0 -19 -4 -19 -10 0 -5 -9 -10 -20
-10 -20 0 -20 -7 -20 -310 l0 -310 28 0 c16 0 34 -8 42 -20 8 -11 23 -20 33
-20 10 0 26 -9 35 -19 10 -11 36 -22 60 -26 l42 -7 0 282 c0 300 2 310 49 310
12 0 26 9 33 20 7 11 23 20 35 20 13 0 23 5 23 10 0 6 8 10 18 10 10 0 24 9
32 20 8 11 22 20 32 20 10 0 18 5 18 10 0 6 8 10 18 10 10 0 24 9 32 20 8 11
26 20 40 20 14 0 32 9 40 20 8 11 21 20 29 20 7 0 21 8 30 18 9 9 28 23 44 31
15 8 27 18 27 23 0 4 22 8 48 8 36 0 51 -5 62 -20 8 -11 22 -20 32 -20 10 0
18 -3 18 -7 0 -9 48 -33 65 -33 6 0 17 -9 25 -20 8 -11 20 -20 28 -20 13 0 42
-23 42 -34 0 -3 -7 -6 -16 -6 -9 0 -24 -8 -33 -17 -21 -23 -57 -43 -76 -43 -8
0 -15 -4 -15 -10 0 -5 -10 -10 -23 -10 -13 0 -33 -9 -45 -20 -12 -11 -26 -20
-32 -20 -6 0 -20 -9 -32 -20 -12 -11 -28 -20 -35 -20 -7 0 -13 -4 -13 -10 0
-5 -9 -10 -20 -10 -11 0 -20 -4 -20 -10 0 -5 -9 -10 -20 -10 -11 0 -20 -4 -20
-10 0 -5 -7 -10 -16 -10 -8 0 -12 -4 -9 -10 3 -5 -3 -10 -14 -10 -12 0 -21 -4
-21 -10 0 -5 -6 -10 -13 -10 -7 0 -22 -8 -33 -17 -26 -23 -61 -43 -75 -43 -6
0 -17 -6 -25 -14 -12 -12 -14 -93 -14 -505 0 -451 -4 -525 -25 -491 -3 5 -17
10 -31 10 -13 0 -24 5 -24 10 0 6 -9 10 -20 10 -13 0 -20 7 -20 20 0 11 -3 19
-7 19 -23 -4 -43 2 -38 11 3 6 -3 10 -14 10 -12 0 -21 5 -21 10 0 6 -13 10
-30 10 -23 0 -30 4 -30 20 0 15 -7 20 -25 20 -14 0 -25 5 -25 10 0 6 -7 10
-15 10 -8 0 -15 5 -15 10 0 6 -9 10 -20 10 -12 0 -30 9 -42 20 -12 11 -28 20
-35 20 -7 0 -13 5 -13 10 0 6 -7 10 -15 10 -8 0 -15 5 -15 10 0 6 -7 10 -16
10 -9 0 -24 8 -33 18 -9 10 -24 21 -33 25 -16 6 -18 22 -18 137 l0 131 -35 34
c-19 19 -41 35 -50 35 -8 0 -15 5 -15 10 0 6 -7 10 -15 10 -24 0 -85 63 -85
87 0 13 -4 23 -10 23 -6 0 -10 27 -10 60 0 33 4 60 10 60 6 0 10 9 10 20 0 11
-4 20 -10 20 -5 0 -10 5 -10 10 0 18 -48 60 -69 60 -11 0 -22 9 -26 20 -3 11
-13 20 -21 20 -8 0 -14 5 -14 10 0 6 -11 10 -25 10 -14 0 -25 5 -25 10 0 6 -9
10 -20 10 -11 0 -20 7 -20 15 0 17 -39 36 -54 27 -5 -3 -6 0 -2 6 4 7 1 12 -8
12 -9 0 -16 5 -16 10 0 6 -6 10 -13 10 -18 0 -67 24 -67 33 0 4 -9 7 -20 7
-11 0 -20 5 -20 11 0 5 -4 8 -8 5 -5 -3 -20 6 -35 20 -15 14 -27 21 -27 17 0
-4 -5 0 -11 10 -5 9 -19 17 -30 17 -43 0 -49 20 -49 174 0 91 4 146 10 146 6
0 10 15 10 34 0 29 3 33 20 29 11 -3 20 -9 20 -14 0 -5 7 -9 15 -9 8 0 15 -4
15 -10 0 -5 7 -10 15 -10 8 0 15 -4 15 -10 0 -5 9 -10 21 -10 11 0 17 -4 14
-10 -3 -5 3 -10 15 -10 11 0 30 -9 42 -20 12 -11 28 -20 35 -20 7 0 13 -4 13
-10 0 -5 9 -10 20 -10 11 0 25 -9 32 -20 7 -11 23 -20 35 -20 13 0 23 -4 23
-10 0 -5 7 -10 15 -10 8 0 15 -4 15 -10 0 -5 7 -10 16 -10 8 0 13 -4 10 -8 -2
-4 7 -9 22 -10 15 -1 29 -7 30 -12 2 -6 10 -10 17 -10 8 0 17 -9 20 -20 4 -14
15 -20 36 -20 27 0 29 3 29 35 0 19 5 35 10 35 6 0 10 11 10 25 0 18 5 25 20
25 11 0 19 3 19 8 -4 23 4 32 29 32 16 0 34 8 42 20 8 12 26 20 42 20 18 0 29
6 33 20 4 13 15 20 31 20 13 0 24 5 24 10 0 6 8 10 18 10 10 0 24 9 32 20 8
11 18 20 23 20 4 0 17 9 29 20 12 11 34 20 50 20 21 0 28 5 28 20 0 13 7 20
18 20 10 0 28 9 40 20 12 11 26 20 32 20 5 0 10 5 10 10 0 6 22 10 48 10 36 0
51 -5 62 -20z m1220 -520 c8 -11 22 -20 32 -20 10 0 18 -4 18 -10 0 -5 7 -10
15 -10 8 0 15 -4 15 -10 0 -5 8 -10 18 -10 10 0 28 -9 40 -20 12 -11 28 -20
37 -20 8 0 15 -4 15 -10 0 -5 7 -10 15 -10 8 0 15 -4 15 -10 0 -5 7 -10 15
-10 8 0 15 -4 15 -10 0 -5 7 -10 15 -10 9 0 25 -9 37 -20 12 -11 32 -20 45
-20 13 0 23 -4 23 -10 0 -5 9 -10 20 -10 13 0 20 -7 20 -20 0 -13 -7 -20 -20
-20 -11 0 -20 -4 -20 -10 0 -5 -9 -10 -20 -10 -11 0 -20 -4 -20 -10 0 -5 -9
-10 -20 -10 -11 0 -20 -4 -20 -10 0 -5 -7 -10 -15 -10 -9 0 -25 -9 -37 -20
-12 -11 -28 -20 -35 -20 -7 0 -13 -4 -13 -10 0 -5 -9 -10 -20 -10 -11 0 -20
-4 -20 -10 0 -5 -12 -10 -26 -10 -17 0 -28 -6 -31 -20 -3 -11 -14 -20 -24 -20
-11 0 -19 -4 -19 -10 0 -5 -9 -10 -20 -10 -11 0 -20 -4 -20 -10 0 -5 -9 -10
-20 -10 -11 0 -20 -4 -20 -10 0 -5 -9 -10 -20 -10 -11 0 -20 -4 -20 -9 0 -5
-9 -11 -20 -14 -11 -3 -20 -12 -20 -21 0 -10 -9 -16 -25 -16 -14 0 -25 -4 -25
-10 0 -5 -16 -10 -35 -10 -19 0 -35 5 -35 10 0 6 -9 10 -20 10 -11 0 -20 5
-20 10 0 6 -8 10 -18 10 -10 0 -24 9 -32 20 -8 11 -22 20 -32 20 -10 0 -18 5
-18 10 0 6 -9 10 -20 10 -11 0 -20 5 -20 10 0 6 -9 10 -21 10 -11 0 -17 5 -14
10 3 6 -1 10 -9 10 -9 0 -16 5 -16 10 0 6 -9 10 -20 10 -11 0 -20 5 -20 10 0
6 -7 10 -15 10 -9 0 -25 9 -37 20 -12 11 -30 20 -41 20 -10 0 -25 7 -33 15
-13 13 -12 18 10 40 14 14 34 25 46 25 11 0 20 5 20 10 0 6 14 10 31 10 22 0
32 5 36 20 3 11 14 20 24 20 11 0 19 3 19 8 0 8 48 32 65 32 6 0 17 9 25 20 8
12 26 20 42 20 21 0 28 5 28 20 0 15 7 20 29 20 20 0 30 6 34 20 3 14 14 20
31 20 14 0 26 4 26 9 0 5 15 15 33 22 17 7 41 21 51 31 26 24 68 23 86 -2z
m-810 -530 c15 -16 37 -30 49 -30 12 0 21 -4 21 -10 0 -5 7 -10 15 -10 8 0 15
-4 15 -10 0 -5 8 -10 18 -10 10 0 24 -9 32 -20 8 -11 20 -20 26 -20 15 0 98
-42 102 -52 2 -5 10 -8 18 -8 8 0 14 -4 14 -10 0 -5 6 -10 13 -10 7 0 19 -9
27 -20 8 -11 19 -20 25 -20 17 0 65 -24 65 -32 0 -5 9 -8 20 -8 19 0 20 -7 20
-190 0 -120 -4 -190 -10 -190 -5 0 -10 5 -10 10 0 6 -13 10 -30 10 -23 0 -30
4 -30 20 0 15 -7 20 -28 20 -16 0 -34 8 -42 20 -8 11 -21 20 -30 20 -9 0 -22
9 -30 20 -8 11 -25 20 -37 20 -13 0 -23 5 -23 10 0 6 -7 10 -15 10 -8 0 -15 5
-15 10 0 6 -11 10 -25 10 -14 0 -25 5 -25 10 0 6 -6 10 -13 10 -7 0 -19 9 -27
20 -8 11 -22 20 -32 20 -10 0 -18 5 -18 10 0 6 -9 10 -20 10 -11 0 -20 5 -20
10 0 6 -9 10 -20 10 -19 0 -20 7 -20 200 0 110 3 200 6 200 3 0 19 -13 34 -30z
m-20 -660 c0 -5 7 -10 16 -10 8 0 29 -13 47 -30 18 -16 38 -30 45 -30 6 0 12
-4 12 -10 0 -5 14 -10 30 -10 17 0 30 -4 30 -10 0 -5 7 -10 16 -10 10 0 14 -6
11 -15 -4 -8 -1 -17 5 -21 7 -4 8 -3 4 4 -4 7 -1 12 8 12 9 0 16 -4 16 -8 0
-5 12 -15 28 -23 15 -8 34 -22 43 -31 9 -10 28 -18 43 -18 14 0 26 -4 26 -10
0 -5 7 -10 16 -10 9 0 24 -9 33 -19 9 -10 28 -21 41 -23 l25 -3 3 -135 3 -134
-21 22 c-12 12 -26 19 -32 16 -7 -4 -8 -2 -4 4 4 7 1 12 -8 12 -9 0 -16 5 -16
10 0 6 -13 10 -28 10 -16 0 -34 8 -42 20 -8 11 -22 20 -32 20 -11 0 -18 7 -18
20 0 16 -7 20 -30 20 -16 0 -30 3 -30 8 0 8 -48 32 -66 32 -6 0 -14 9 -17 20
-3 13 -14 20 -29 20 -13 0 -30 9 -38 20 -8 11 -25 20 -37 20 -13 0 -34 10 -48
22 -24 21 -25 26 -25 140 0 72 4 118 10 118 6 0 10 -4 10 -10z m-780 -80 c0
-5 9 -10 20 -10 11 0 20 -4 20 -10 0 -5 7 -10 15 -10 8 0 15 -4 15 -10 0 -5 7
-10 15 -10 8 0 15 -4 15 -10 0 -5 9 -10 20 -10 11 0 20 -4 20 -10 0 -5 7 -10
16 -10 8 0 12 -4 9 -10 -4 -6 5 -10 20 -10 18 0 29 -6 32 -20 3 -11 11 -20 17
-20 18 0 66 -24 66 -32 0 -5 7 -8 16 -8 8 0 13 -4 10 -8 -2 -4 7 -9 22 -10 15
-1 29 -7 30 -12 2 -6 13 -10 23 -10 11 0 17 -4 14 -10 -3 -5 1 -10 9 -10 9 0
16 -4 16 -10 0 -5 13 -10 28 -10 21 0 32 -7 40 -25 6 -14 16 -25 22 -25 6 0
10 -63 10 -175 l0 -175 -28 0 c-16 0 -34 8 -42 20 -8 11 -20 20 -28 20 -16 0
-42 24 -42 39 0 5 -5 13 -12 17 -7 4 -8 3 -4 -4 5 -8 -1 -12 -17 -12 -16 0
-26 7 -30 20 -3 11 -14 20 -24 20 -11 0 -29 9 -41 20 -12 11 -28 20 -37 20 -8
0 -15 5 -15 10 0 6 -5 10 -11 10 -6 0 -25 10 -42 22 -17 12 -27 16 -23 9 6
-10 3 -10 -13 1 -12 7 -21 16 -21 20 0 5 -5 8 -10 8 -6 0 -20 9 -32 20 -12 11
-30 20 -40 20 -11 0 -30 11 -43 25 -25 24 -25 27 -25 200 0 168 1 175 20 175
11 0 20 -4 20 -10z m812 -470 c12 -11 28 -20 35 -20 7 0 13 -4 13 -10 0 -5 9
-10 20 -10 11 0 25 -9 32 -20 7 -11 20 -20 28 -20 9 0 22 -9 30 -20 8 -11 19
-20 25 -20 17 0 65 -24 65 -32 0 -5 9 -8 20 -8 11 0 20 -4 20 -10 0 -5 7 -10
15 -10 8 0 15 -3 15 -7 0 -10 49 -33 67 -33 8 0 25 -11 39 -25 14 -14 29 -25
34 -25 6 0 10 -75 10 -187 0 -145 -3 -184 -12 -175 -7 7 -19 12 -28 12 -8 0
-22 9 -30 20 -8 11 -20 20 -28 20 -7 0 -27 13 -45 30 -18 16 -40 30 -50 30
-10 0 -27 9 -39 20 -12 11 -28 20 -35 20 -7 0 -13 5 -13 10 0 6 -9 10 -20 10
-11 0 -20 5 -20 10 0 6 -9 10 -20 10 -11 0 -20 5 -20 10 0 6 -9 10 -20 10 -11
0 -20 5 -20 10 0 6 -9 10 -20 10 -11 0 -20 5 -20 10 0 6 -7 10 -15 10 -8 0
-15 4 -15 9 0 5 -11 12 -25 15 l-25 6 0 185 c0 160 2 185 15 185 9 0 25 -9 37
-20z m-832 -190 c0 -5 9 -10 20 -10 11 0 20 -4 20 -10 0 -5 7 -10 15 -10 8 0
15 -4 15 -10 0 -5 7 -10 15 -10 8 0 15 -4 15 -10 0 -5 9 -10 19 -10 11 0 23
-4 26 -10 3 -5 15 -10 26 -10 10 0 33 -13 51 -30 17 -16 37 -30 44 -30 8 0 14
-4 14 -10 0 -5 9 -10 20 -10 11 0 20 -4 20 -8 0 -8 17 -18 80 -46 14 -6 31
-19 38 -28 7 -10 20 -18 28 -18 8 0 14 -4 14 -10 0 -5 9 -10 20 -10 11 0 20
-4 20 -10 0 -5 8 -10 18 -10 9 0 28 -9 42 -20 14 -11 31 -20 38 -20 6 0 12 -4
12 -10 0 -5 7 -10 15 -10 8 0 15 -4 15 -10 0 -5 7 -10 16 -10 9 0 24 -9 34
-20 10 -11 29 -21 43 -22 14 -1 24 -4 22 -7 -7 -6 27 -30 43 -31 7 0 22 -9 34
-20 12 -11 28 -20 35 -20 7 0 13 -4 13 -10 0 -5 9 -10 20 -10 11 0 20 -4 20
-10 0 -5 6 -10 13 -10 7 0 23 -9 35 -20 12 -11 33 -20 47 -20 23 0 30 -10 26
-33 -1 -5 3 -6 8 -3 5 3 11 -1 15 -9 3 -8 11 -15 18 -15 9 0 8 3 -2 10 -8 5
-10 10 -4 10 5 0 20 -9 32 -20 12 -11 28 -20 37 -20 8 0 15 -5 15 -11 0 -5 4
-8 9 -4 5 3 16 -2 24 -10 9 -8 23 -15 31 -15 9 0 16 -4 16 -10 0 -5 9 -10 20
-10 19 0 20 -7 20 -130 0 -71 -4 -130 -8 -130 -4 0 -14 9 -22 20 -8 11 -26 20
-40 20 -14 0 -32 9 -40 20 -8 11 -24 20 -36 20 -12 0 -25 7 -28 16 -4 10 -2
13 6 8 7 -4 8 -3 4 4 -4 7 -18 12 -32 12 -13 0 -24 4 -24 9 0 5 -16 15 -35 22
-19 7 -35 17 -35 21 0 4 -7 8 -15 8 -8 0 -15 5 -15 10 0 6 -7 10 -15 10 -9 0
-25 9 -37 20 -12 11 -32 20 -45 20 -13 0 -23 5 -23 10 0 6 -6 10 -13 10 -7 0
-18 9 -25 20 -7 11 -19 20 -27 20 -8 0 -15 5 -15 10 0 6 -9 10 -20 10 -11 0
-20 5 -20 10 0 6 -9 10 -20 10 -11 0 -20 5 -20 10 0 6 -6 10 -13 10 -7 0 -23
9 -35 20 -12 11 -28 20 -36 20 -8 0 -29 15 -47 33 -17 17 -28 26 -25 20 12
-21 -18 -15 -34 7 -8 12 -26 20 -42 20 -17 0 -29 6 -32 18 -4 10 -22 25 -41
32 -19 8 -35 17 -35 20 0 6 -36 25 -117 63 -13 6 -23 14 -23 19 0 4 -11 8 -24
8 -16 0 -27 7 -31 20 -3 11 -15 20 -26 20 -10 0 -19 5 -19 10 0 6 -9 10 -20
10 -11 0 -20 5 -20 10 0 6 -9 10 -20 10 -11 0 -20 5 -20 10 0 6 -7 10 -16 10
-36 0 -44 25 -44 144 0 71 4 116 10 116 6 0 10 -4 10 -10z"/>
<path d="M3080 5190 c0 -5 -20 -10 -45 -10 -35 0 -52 -6 -70 -25 -14 -13 -25
-28 -25 -34 0 -5 -9 -13 -20 -16 -13 -4 -20 -15 -20 -30 0 -13 -4 -27 -10 -30
-5 -3 -10 -22 -10 -41 0 -19 5 -34 10 -34 6 0 10 -18 10 -40 0 -30 7 -47 25
-66 14 -14 25 -29 25 -34 0 -6 7 -10 15 -10 8 0 15 -4 15 -10 0 -5 7 -10 15
-10 8 0 15 -4 15 -10 0 -5 16 -10 36 -10 19 0 33 -4 30 -9 -7 -10 30 -6 65 7
15 6 30 8 33 5 3 -4 6 -1 6 5 0 7 8 12 18 12 10 0 24 9 32 20 8 11 22 20 32
20 13 0 18 8 18 30 0 17 5 30 10 30 6 0 10 7 10 16 0 8 4 13 8 10 5 -3 10 22
11 54 1 37 -2 60 -8 60 -6 0 -11 11 -11 25 0 14 -4 25 -10 25 -5 0 -10 5 -10
10 0 14 -46 60 -60 60 -6 0 -20 9 -32 20 -12 11 -29 20 -37 19 -12 0 -10 -3 4
-9 16 -7 17 -9 3 -9 -9 -1 -20 4 -23 9 -3 6 -17 10 -31 10 -13 0 -24 -4 -24
-10z"/>
<path d="M4130 5732 c0 -7 -10 -12 -21 -12 -25 0 -89 -66 -89 -92 0 -10 5 -18
10 -18 6 0 10 -25 10 -55 0 -46 3 -55 18 -55 10 0 24 -9 32 -20 12 -16 26 -20
72 -20 32 0 58 4 58 10 0 6 9 10 20 10 14 0 20 7 20 23 0 12 9 29 20 37 15 11
20 26 20 57 0 24 -4 43 -10 43 -5 0 -10 7 -10 16 0 20 -24 44 -44 44 -9 0 -16
5 -16 10 0 6 -15 10 -33 10 -18 0 -38 5 -45 12 -9 9 -12 9 -12 0z"/>
<path d="M1490 5560 c-8 -11 -20 -20 -28 -20 -16 0 -42 -24 -42 -39 0 -6 -4
-11 -10 -11 -5 0 -10 -5 -10 -11 0 -5 5 -7 10 -4 6 3 10 -1 10 -9 0 -9 -4 -16
-10 -16 -5 0 -10 -18 -10 -40 0 -22 5 -40 10 -40 6 0 10 -5 10 -10 0 -6 11
-22 25 -35 21 -22 33 -25 97 -25 68 0 75 2 93 27 11 14 26 32 33 39 14 15 17
134 2 134 -5 0 -10 7 -10 16 0 23 -25 44 -54 44 -14 0 -26 5 -26 10 0 6 -17
10 -38 10 -26 0 -42 -6 -52 -20z"/>
<path d="M4630 5570 c0 -5 -11 -10 -25 -10 -14 0 -25 -4 -25 -10 0 -5 -7 -10
-15 -10 -9 0 -27 -11 -40 -25 -21 -20 -25 -34 -25 -80 0 -30 5 -55 10 -55 6 0
10 -13 10 -30 0 -23 4 -30 20 -30 11 0 20 -4 20 -10 0 -6 32 -10 75 -10 67 0
79 3 100 25 14 13 25 31 25 39 0 8 5 16 11 18 6 2 11 26 11 55 0 48 -3 55 -46
97 -48 48 -60 54 -70 34 -5 -10 -7 -10 -12 0 -7 14 -24 16 -24 2z"/>
<path d="M950 5320 c-8 -11 -20 -20 -27 -20 -17 0 -63 -48 -63 -65 0 -8 -4
-15 -10 -15 -5 0 -10 -9 -10 -19 0 -11 -4 -23 -10 -26 -5 -3 -10 -35 -10 -71
0 -36 4 -64 10 -64 6 0 10 -9 10 -20 0 -11 5 -20 10 -20 6 0 10 -12 10 -26 0
-17 6 -28 20 -31 11 -3 20 -9 20 -14 0 -5 11 -9 25 -9 14 0 25 -4 25 -10 0 -5
16 -10 35 -10 19 0 35 -4 35 -10 0 -5 14 -10 30 -10 17 0 30 5 30 10 0 6 14
10 30 10 17 0 30 5 30 10 0 6 9 10 20 10 11 0 20 5 20 10 0 6 9 10 20 10 13 0
20 7 20 20 0 11 5 20 10 20 6 0 10 7 10 15 0 8 5 15 10 15 6 0 10 25 10 56 0
35 4 53 10 49 6 -4 10 5 8 24 -1 17 -6 31 -10 31 -4 0 -8 9 -8 21 0 12 -13 34
-30 49 -16 15 -30 35 -30 44 0 9 -8 16 -20 16 -11 0 -20 5 -20 10 0 6 -11 10
-24 10 -14 0 -28 5 -31 10 -3 6 -36 10 -73 10 -56 0 -70 -3 -82 -20z"/>
<path d="M5080 5330 c0 -5 -9 -10 -20 -10 -11 0 -20 -4 -20 -10 0 -5 -13 -10
-30 -10 -20 0 -30 -5 -30 -15 0 -9 -9 -25 -20 -37 -11 -12 -20 -28 -20 -35 0
-7 -4 -13 -10 -13 -5 0 -10 -13 -10 -29 0 -16 -6 -32 -12 -35 -10 -5 -10 -7 0
-12 6 -3 12 -23 12 -45 0 -21 5 -39 10 -39 6 0 10 -10 10 -21 0 -12 8 -29 19
-38 10 -9 20 -25 22 -36 3 -13 14 -21 32 -23 15 -2 27 -8 27 -13 0 -6 42 -9
104 -8 85 1 108 5 123 19 30 29 53 60 53 70 0 6 3 10 8 10 15 0 32 56 32 110
0 31 -6 62 -12 69 -11 11 -10 12 0 6 11 -6 11 -3 0 14 -7 12 -16 21 -20 21 -5
0 -8 7 -8 16 0 9 -9 18 -20 21 -11 3 -20 12 -20 19 0 8 -8 18 -17 21 -10 4
-25 15 -34 25 -13 14 -31 18 -83 18 -37 0 -66 -4 -66 -10z"/>
<path d="M5480 3810 c0 -5 -9 -10 -20 -10 -11 0 -20 -4 -20 -10 0 -5 -9 -10
-20 -10 -11 0 -20 -4 -20 -10 0 -5 -9 -10 -20 -10 -11 0 -20 -4 -20 -10 0 -5
-7 -10 -15 -10 -8 0 -15 -4 -15 -10 0 -5 -7 -10 -15 -10 -8 0 -15 -4 -15 -10
0 -5 -13 -10 -30 -10 -16 0 -30 -4 -30 -10 0 -5 -9 -10 -20 -10 -11 0 -20 -4
-20 -10 0 -5 -9 -10 -20 -10 -18 0 -25 -10 -21 -32 0 -5 -8 -8 -19 -8 -11 0
-20 -4 -20 -10 0 -5 -9 -10 -20 -10 -11 0 -20 -4 -20 -10 0 -5 -6 -10 -13 -10
-7 0 -23 -9 -35 -20 -12 -11 -31 -20 -42 -20 -11 0 -30 -9 -42 -20 -12 -11
-30 -20 -40 -20 -10 0 -31 -13 -46 -30 -16 -16 -41 -31 -55 -32 -14 -1 -23 -6
-21 -10 3 -4 0 -8 -6 -8 -6 0 -20 -9 -32 -20 -12 -11 -28 -20 -35 -20 -7 0
-13 -4 -13 -10 0 -5 -7 -10 -15 -10 -8 0 -15 -4 -15 -10 0 -5 -8 -10 -18 -10
-10 0 -28 -9 -40 -20 -12 -11 -28 -20 -37 -20 -8 0 -15 -4 -15 -10 0 -5 -7
-10 -16 -10 -9 0 -29 -13 -44 -30 -17 -18 -38 -30 -54 -30 -14 0 -26 -4 -26
-10 0 -5 -8 -10 -18 -10 -10 0 -24 -9 -32 -20 -8 -11 -21 -20 -30 -20 -9 0
-22 -9 -30 -20 -8 -11 -24 -20 -35 -20 -12 0 -31 -9 -43 -20 -12 -11 -28 -20
-36 -20 -8 0 -16 -5 -18 -11 -3 -8 -38 -11 -106 -10 -65 1 -102 -2 -102 -9 0
-5 -6 -10 -13 -10 -7 0 -19 -9 -27 -20 -8 -11 -22 -20 -32 -20 -11 0 -18 -7
-18 -20 0 -11 -4 -20 -10 -20 -5 0 -10 -7 -10 -15 0 -8 -4 -15 -10 -15 -6 0
-10 -35 -10 -85 0 -50 4 -85 10 -85 6 0 10 -7 10 -15 0 -16 70 -93 70 -78 0 4
5 0 11 -9 8 -15 25 -18 94 -18 50 0 85 4 85 10 0 6 11 10 25 10 15 0 28 7 32
18 4 9 24 34 45 54 21 20 38 43 38 50 0 8 6 20 13 27 10 11 9 12 -3 6 -8 -4
-3 4 12 19 15 14 34 26 43 26 8 0 15 5 15 10 0 6 8 10 18 10 10 0 24 9 32 20
8 11 25 20 38 20 15 0 26 7 29 20 6 23 14 25 32 8 8 -7 11 -8 8 -2 -4 7 12 21
38 35 25 13 45 27 45 31 0 5 12 8 26 8 16 0 37 12 54 30 28 30 58 42 44 18 -4
-7 2 -4 14 6 12 11 22 25 22 33 0 7 11 13 25 13 14 0 35 9 47 20 12 11 28 20
35 20 7 0 13 5 13 10 0 6 7 10 15 10 8 0 15 5 15 10 0 6 7 10 15 10 8 0 15 5
15 10 0 6 9 10 20 10 11 0 20 5 20 10 0 6 9 10 20 10 11 0 20 5 20 10 0 6 8
10 18 10 10 0 24 9 32 20 16 22 46 29 34 8 -11 -18 28 12 44 35 7 9 21 17 30
17 10 0 24 9 32 20 8 11 20 20 27 20 7 0 13 5 13 10 0 6 7 10 15 10 8 0 15 5
15 10 0 6 11 10 25 10 14 0 30 9 37 20 7 11 22 20 33 20 11 0 26 9 33 20 7 12
23 20 40 20 16 0 32 8 40 20 7 11 19 20 27 20 8 0 15 5 15 10 0 6 7 10 15 10
13 0 15 21 15 130 l0 130 -30 0 c-16 0 -30 -4 -30 -10z"/>
<path d="M5440 2700 c-14 -11 -32 -20 -40 -20 -9 0 -22 -9 -30 -20 -8 -11 -22
-20 -32 -20 -10 0 -18 -4 -18 -10 0 -5 -9 -10 -20 -10 -11 0 -20 -4 -20 -10 0
-5 -9 -10 -20 -10 -11 0 -20 -4 -20 -10 0 -5 -7 -10 -16 -10 -9 0 -29 -13 -44
-30 -15 -16 -35 -30 -44 -30 -9 0 -16 -4 -16 -10 0 -5 -7 -10 -15 -10 -8 0
-15 -4 -15 -10 0 -5 -14 -10 -30 -10 -24 0 -43 -13 -86 -56 l-56 -56 1 -100
c1 -87 3 -103 21 -118 11 -10 20 -25 20 -34 0 -9 7 -16 16 -16 9 0 23 -8 30
-17 10 -15 31 -19 108 -21 65 -3 96 0 96 7 0 6 7 11 15 11 8 0 15 5 15 10 0 6
9 10 20 10 13 0 20 7 20 20 0 11 5 20 10 20 6 0 10 7 10 15 0 8 5 15 10 15 6
0 10 7 10 15 0 8 5 15 10 15 15 0 12 57 -2 63 -10 4 -10 6 0 6 14 1 17 41 2
41 -5 0 -10 5 -10 10 0 17 47 60 65 60 8 0 15 5 15 10 0 6 7 10 15 10 8 0 15
5 15 10 0 6 6 10 14 10 8 0 16 5 18 11 2 6 13 12 23 13 52 3 56 13 53 147 l-3
124 -35 3 c-23 1 -44 -5 -60 -18z"/>
<path d="M943 2460 c-3 -11 -11 -20 -18 -20 -20 0 -85 -72 -85 -95 0 -12 -5
-26 -11 -32 -7 -7 -8 -17 -1 -29 5 -11 10 -41 10 -67 0 -36 5 -53 21 -66 12
-10 21 -26 21 -35 0 -9 8 -16 20 -16 11 0 20 -4 20 -10 0 -5 9 -10 20 -10 11
0 20 -4 20 -10 0 -6 40 -10 100 -10 89 0 101 2 112 20 7 11 21 20 30 20 11 0
18 8 18 20 0 11 5 20 10 20 6 0 10 9 10 20 0 11 5 20 10 20 6 0 10 25 10 56 0
34 4 53 10 49 6 -3 10 1 10 9 0 9 -4 16 -10 16 -5 0 -10 11 -10 25 0 14 -4 25
-10 25 -5 0 -10 7 -10 15 0 23 -66 85 -90 85 -11 0 -20 5 -20 10 0 6 -37 10
-91 10 -82 0 -91 -2 -96 -20z"/>
<path d="M5500 1990 c0 -5 -9 -10 -20 -10 -11 0 -20 -4 -20 -10 0 -5 -9 -10
-20 -10 -11 0 -20 -4 -20 -10 0 -5 -7 -10 -16 -10 -9 0 -24 -9 -34 -20 -10
-11 -29 -21 -43 -22 -14 -1 -24 -4 -22 -7 7 -6 -28 -30 -45 -31 -9 0 -22 -9
-30 -20 -8 -12 -26 -20 -42 -20 -21 0 -28 -5 -28 -20 0 -15 -7 -20 -25 -20
-14 0 -29 -8 -35 -20 -6 -11 -17 -20 -25 -20 -12 0 -15 -22 -15 -130 0 -129 0
-130 23 -130 13 0 33 9 45 20 12 11 28 20 37 20 8 0 15 5 15 10 0 6 7 10 15
10 8 0 15 5 15 10 0 6 7 10 15 10 8 0 15 5 15 10 0 6 9 10 20 10 11 0 34 14
52 30 17 17 39 30 49 30 11 0 19 5 19 10 0 6 7 10 15 10 8 0 15 5 15 10 0 6 7
10 15 10 8 0 15 5 15 10 0 6 10 10 23 10 12 0 28 9 35 20 7 11 19 20 27 20 13
0 15 21 15 130 0 123 -1 130 -20 130 -11 0 -20 -4 -20 -10z"/>
<path d="M3520 1690 c0 -5 -9 -10 -20 -10 -11 0 -20 -4 -20 -10 0 -5 -9 -10
-20 -10 -13 0 -20 -7 -20 -20 0 -13 -7 -20 -20 -20 -11 0 -20 -7 -20 -15 0 -8
-4 -15 -10 -15 -5 0 -10 -7 -10 -15 0 -8 -4 -15 -10 -15 -6 0 -10 -38 -10 -95
0 -57 4 -95 10 -95 6 0 10 -6 10 -14 0 -8 3 -16 8 -18 4 -1 17 -23 30 -46 21
-42 22 -55 22 -263 0 -197 2 -220 17 -226 9 -4 19 -1 21 5 2 7 10 12 19 12 8
0 26 9 40 20 14 11 34 20 44 20 11 0 19 5 19 10 0 6 7 10 15 10 8 0 15 5 15
10 0 6 7 10 15 10 13 0 15 28 15 190 0 145 3 190 13 190 16 0 67 44 67 59 0 6
5 11 10 11 6 0 10 9 10 20 0 11 5 20 10 20 6 0 10 33 10 80 0 47 -4 80 -10 80
-5 0 -10 13 -10 28 0 29 -44 82 -68 82 -7 0 -12 5 -12 10 0 6 -9 10 -19 10
-11 0 -23 5 -26 10 -3 6 -31 10 -61 10 -30 0 -54 -4 -54 -10z"/>
<path d="M972 1220 c-12 -11 -32 -21 -46 -22 -13 -1 -22 -6 -20 -10 3 -4 0 -8
-6 -8 -6 0 -8 -5 -5 -10 4 -6 3 -10 -2 -9 -22 4 -33 -3 -33 -21 0 -11 -4 -20
-10 -20 -5 0 -10 -16 -10 -36 0 -19 -4 -33 -8 -30 -5 3 -10 -19 -11 -49 -1
-29 3 -56 9 -60 5 -3 10 -17 10 -31 0 -16 18 -43 55 -79 l55 -55 90 0 c53 0
90 4 90 10 0 6 7 10 15 10 8 0 15 5 15 10 0 6 14 10 30 10 27 0 30 3 30 30 0
17 5 30 10 30 6 0 10 7 10 15 0 8 5 15 10 15 6 0 10 14 10 30 0 17 5 30 10 30
6 0 10 16 10 35 0 19 -4 35 -10 35 -5 0 -10 15 -10 33 0 44 -75 127 -114 127
-14 0 -26 5 -26 10 0 6 -11 10 -25 10 -14 0 -25 5 -25 10 0 6 -11 10 -24 10
-14 0 -28 -4 -31 -10 -3 -5 -11 -10 -16 -10 -6 0 -7 5 -4 10 10 16 1 12 -23
-10z"/>
<path d="M5070 1210 c0 -5 -10 -10 -23 -10 -12 0 -29 -9 -37 -20 -8 -11 -22
-20 -32 -20 -11 0 -18 -7 -18 -20 0 -11 -4 -20 -10 -20 -5 0 -10 -14 -10 -31
0 -17 -4 -28 -10 -24 -5 3 -10 2 -10 -4 0 -5 6 -12 13 -14 10 -4 10 -6 0 -6
-16 -1 -18 -101 -3 -101 6 0 10 -11 10 -25 0 -14 5 -25 10 -25 6 0 10 -11 10
-25 0 -18 5 -25 20 -25 11 0 20 -4 20 -10 0 -5 8 -10 18 -10 10 0 24 -9 32
-20 12 -17 26 -20 82 -20 39 0 68 4 68 10 0 6 9 10 20 10 11 0 20 5 20 10 0 6
7 10 15 10 20 0 85 65 85 84 0 8 5 18 10 21 6 3 10 37 10 74 0 53 -4 72 -20
89 -11 12 -20 26 -20 32 0 6 -16 26 -35 45 -26 27 -43 35 -70 35 -19 0 -35 5
-35 10 0 6 -25 10 -55 10 -30 0 -55 -4 -55 -10z"/>
<path d="M1480 810 c0 -5 -7 -10 -16 -10 -20 0 -43 -28 -44 -52 0 -10 -4 -18
-10 -18 -5 0 -10 -18 -10 -40 0 -22 5 -40 10 -40 6 0 10 -14 10 -30 0 -19 9
-40 25 -55 21 -22 33 -25 90 -25 37 0 65 4 65 10 0 6 9 10 19 10 12 0 25 12
33 30 7 17 16 30 20 30 5 0 8 25 8 56 0 39 3 53 12 48 7 -4 8 -3 4 4 -4 7 -14
12 -22 12 -8 0 -14 7 -14 16 0 23 -25 44 -54 44 -14 0 -26 5 -26 10 0 6 -22
10 -50 10 -27 0 -50 -4 -50 -10z"/>
<path d="M4620 810 c0 -5 -11 -10 -25 -10 -33 0 -75 -42 -75 -75 0 -14 -4 -25
-10 -25 -5 0 -10 -9 -10 -19 0 -11 5 -23 10 -26 6 -3 10 -17 10 -31 0 -13 5
-24 10 -24 6 0 10 -9 10 -20 0 -13 7 -20 20 -20 11 0 20 -4 20 -10 0 -6 28
-10 65 -10 62 0 68 2 100 35 19 19 35 40 35 48 0 7 5 18 11 24 8 8 8 17 0 31
-6 11 -11 30 -11 41 0 12 -4 21 -10 21 -5 0 -10 7 -10 16 0 23 -25 44 -54 44
-14 0 -26 5 -26 10 0 6 -13 10 -30 10 -16 0 -30 -4 -30 -10z"/>
<path d="M1965 647 c-11 -7 -34 -28 -52 -46 -28 -30 -33 -42 -33 -83 0 -42 5
-53 35 -83 19 -19 39 -35 45 -35 5 0 10 -4 10 -10 0 -5 25 -10 55 -10 30 0 55
5 55 10 0 6 9 10 20 10 13 0 20 7 20 18 0 10 9 24 20 32 16 11 20 26 20 67 0
45 -4 57 -32 88 -18 19 -41 35 -50 35 -10 0 -18 5 -18 10 0 14 -71 11 -95 -3z"/>
<path d="M4135 650 c4 -6 -7 -10 -24 -10 -17 0 -31 -4 -31 -10 0 -5 -9 -10
-20 -10 -18 0 -20 -7 -20 -60 0 -33 -4 -60 -10 -60 -5 0 -10 -9 -10 -20 0 -11
5 -20 10 -20 6 0 10 -7 10 -16 0 -22 25 -44 49 -44 12 0 21 -4 21 -10 0 -5 23
-10 50 -10 28 0 50 5 50 10 0 6 7 10 15 10 8 0 15 4 15 9 0 5 9 11 20 14 15 4
20 14 20 36 0 17 5 31 10 31 6 0 10 14 10 30 0 17 -4 30 -10 30 -5 0 -10 9
-10 20 0 29 -44 70 -75 70 -14 0 -25 5 -25 10 0 6 -12 10 -26 10 -14 0 -23 -4
-19 -10z"/>
</g>
</svg>
